<svg width="207" height="108" viewBox="0 0 207 108" fill="none" xmlns="http://www.w3.org/2000/svg">
<rect y="1" width="207" height="105" rx="25" fill="#FF451D"/>
<path d="M99.2528 31.568L90.6992 24.5696C88.7984 25.1744 85.9472 25.52 82.5776 25.52C73.3328 25.52 40.1552 25.52 34.712 25.52C31.688 25.52 27.0224 25.088 24.6896 24.656V36.8384C26.504 36.5792 31.1696 36.1472 34.712 36.1472C41.2784 36.1472 72.728 36.1472 80.3312 36.1472C75.8384 44.096 66.1616 55.8464 54.7568 63.7952L63.3968 71.744C76.7888 61.8944 89.576 46.3424 96.3152 35.1968C97.0064 34.16 98.0432 32.9504 99.2528 31.568ZM53.72 73.04C59.336 78.7424 66.5936 86.864 70.136 91.7024L80.3312 83.5808C76.184 78.5696 69.3584 71.3984 63.656 65.8688C57.0896 59.5616 48.4496 52.5632 43.784 49.0208L34.712 56.4512C39.8096 60.08 48.6224 67.9424 53.72 73.04ZM146.773 84.0992L154.03 90.0608C154.894 89.456 155.931 88.5056 157.746 87.5552C167.509 82.6304 179.864 73.2992 187.035 63.968L180.469 54.3776C174.594 62.7584 166.126 69.584 159.042 72.608C159.042 67.3376 159.042 34.4192 159.042 27.5072C159.042 23.6192 159.646 20.1632 159.646 19.9904H146.859C146.859 20.1632 147.464 23.5328 147.464 27.4208C147.464 34.4192 147.464 73.2128 147.464 77.792C147.464 80.1248 147.205 82.4576 146.773 84.0992ZM106.77 82.8896L117.31 89.888C124.741 83.3216 130.098 74.768 132.776 65.0912C135.022 56.3648 135.282 38.1344 135.282 27.8528C135.282 24.3104 135.886 20.4224 135.886 20.0768H123.186C123.704 22.2368 124.05 24.4832 124.05 28.0256C124.05 38.3936 123.963 54.8096 121.458 62.1536C119.125 69.584 114.459 77.5328 106.77 82.8896Z" fill="white"/>
</svg>
