<svg width="803" height="108" viewBox="0 0 803 108" fill="none" xmlns="http://www.w3.org/2000/svg">
<rect y="1" width="207" height="105" rx="25" fill="#FF451D"/>
<path d="M99.2528 31.568L90.6992 24.5696C88.7984 25.1744 85.9472 25.52 82.5776 25.52C73.3328 25.52 40.1552 25.52 34.712 25.52C31.688 25.52 27.0224 25.088 24.6896 24.656V36.8384C26.504 36.5792 31.1696 36.1472 34.712 36.1472C41.2784 36.1472 72.728 36.1472 80.3312 36.1472C75.8384 44.096 66.1616 55.8464 54.7568 63.7952L63.3968 71.744C76.7888 61.8944 89.576 46.3424 96.3152 35.1968C97.0064 34.16 98.0432 32.9504 99.2528 31.568ZM53.72 73.04C59.336 78.7424 66.5936 86.864 70.136 91.7024L80.3312 83.5808C76.184 78.5696 69.3584 71.3984 63.656 65.8688C57.0896 59.5616 48.4496 52.5632 43.784 49.0208L34.712 56.4512C39.8096 60.08 48.6224 67.9424 53.72 73.04ZM146.773 84.0992L154.03 90.0608C154.894 89.456 155.931 88.5056 157.746 87.5552C167.509 82.6304 179.864 73.2992 187.035 63.968L180.469 54.3776C174.594 62.7584 166.126 69.584 159.042 72.608C159.042 67.3376 159.042 34.4192 159.042 27.5072C159.042 23.6192 159.646 20.1632 159.646 19.9904H146.859C146.859 20.1632 147.464 23.5328 147.464 27.4208C147.464 34.4192 147.464 73.2128 147.464 77.792C147.464 80.1248 147.205 82.4576 146.773 84.0992ZM106.77 82.8896L117.31 89.888C124.741 83.3216 130.098 74.768 132.776 65.0912C135.022 56.3648 135.282 38.1344 135.282 27.8528C135.282 24.3104 135.886 20.4224 135.886 20.0768H123.186C123.704 22.2368 124.05 24.4832 124.05 28.0256C124.05 38.3936 123.963 54.8096 121.458 62.1536C119.125 69.584 114.459 77.5328 106.77 82.8896Z" fill="white"/>
<path d="M246.603 86V25.52H259.736L281.768 61.376L272.35 61.2896L294.642 25.52H307.256V86H293V67.1648C293 61.9808 293.115 57.3152 293.346 53.168C293.634 49.0208 294.094 44.9024 294.728 40.8128L296.37 45.3056L279.608 71.312H273.906L257.49 45.4784L259.131 40.8128C259.765 44.672 260.197 48.6464 260.427 52.736C260.715 56.768 260.859 61.5776 260.859 67.1648V86H246.603ZM326.776 105.872L337.231 81.248L337.404 88.3328L315.285 40.1216H330.924L340.6 63.1904C341.119 64.3424 341.608 65.5808 342.069 66.9056C342.53 68.2304 342.876 69.4976 343.106 70.7072L341.205 71.8304C341.551 70.9664 341.925 69.9008 342.328 68.6336C342.789 67.3088 343.279 65.8976 343.797 64.4L352.264 40.1216H367.989L348.463 86L340.514 105.872H326.776ZM652.194 86V25.52H666.882V73.04H693.839V86H652.194ZM704.153 86V40.1216H717.977V86H704.153ZM711.065 31.0496C708.473 31.0496 706.428 30.4448 704.93 29.2352C703.49 27.968 702.77 26.1824 702.77 23.8784C702.77 21.8048 703.519 20.1056 705.017 18.7808C706.514 17.456 708.53 16.7936 711.065 16.7936C713.657 16.7936 715.673 17.4272 717.113 18.6944C718.553 19.904 719.273 21.632 719.273 23.8784C719.273 26.0096 718.524 27.7376 717.026 29.0624C715.586 30.3872 713.599 31.0496 711.065 31.0496ZM746.431 86.864C741.938 86.864 737.964 86.144 734.508 84.704C731.11 83.264 728.402 81.3344 726.386 78.9152L734.767 71.6576C736.553 73.4432 738.569 74.768 740.815 75.632C743.062 76.4384 745.193 76.8416 747.209 76.8416C748.015 76.8416 748.735 76.7552 749.369 76.5824C750.002 76.4096 750.521 76.1792 750.924 75.8912C751.385 75.5456 751.73 75.1712 751.961 74.768C752.191 74.3072 752.306 73.7888 752.306 73.2128C752.306 72.0608 751.788 71.168 750.751 70.5344C750.233 70.2464 749.369 69.9008 748.159 69.4976C746.95 69.0944 745.394 68.6336 743.494 68.1152C740.786 67.424 738.425 66.6176 736.409 65.696C734.45 64.7168 732.838 63.5936 731.57 62.3264C730.418 61.1168 729.526 59.792 728.892 58.352C728.258 56.8544 727.942 55.184 727.942 53.3408C727.942 51.2096 728.431 49.28 729.41 47.552C730.447 45.824 731.801 44.3264 733.471 43.0592C735.199 41.792 737.158 40.8416 739.346 40.208C741.593 39.5168 743.897 39.1712 746.258 39.1712C748.793 39.1712 751.212 39.4592 753.516 40.0352C755.82 40.6112 757.951 41.4176 759.91 42.4544C761.926 43.4912 763.711 44.7296 765.266 46.1696L758.009 54.2912C756.972 53.312 755.791 52.448 754.466 51.6992C753.199 50.8928 751.874 50.2592 750.492 49.7984C749.11 49.3376 747.842 49.1072 746.69 49.1072C745.826 49.1072 745.049 49.1936 744.358 49.3664C743.724 49.4816 743.177 49.712 742.716 50.0576C742.255 50.3456 741.91 50.72 741.679 51.1808C741.449 51.584 741.334 52.0736 741.334 52.6496C741.334 53.2256 741.478 53.7728 741.766 54.2912C742.111 54.8096 742.572 55.2416 743.148 55.5872C743.724 55.9328 744.646 56.336 745.913 56.7968C747.18 57.2 748.908 57.7184 751.097 58.352C753.804 59.1008 756.137 59.936 758.095 60.8576C760.054 61.7792 761.609 62.8736 762.761 64.1408C763.682 65.12 764.374 66.272 764.834 67.5968C765.295 68.864 765.526 70.2464 765.526 71.744C765.526 74.6816 764.69 77.3024 763.02 79.6064C761.407 81.8528 759.161 83.6384 756.281 84.9632C753.401 86.2304 750.118 86.864 746.431 86.864ZM777.545 86V28.544H791.369V86H777.545ZM769.424 52.2176V40.1216H800.269V52.2176H769.424Z" fill="#FF451D"/>
<path d="M368.345 86L392.278 25.52H404.719L428.479 86H413.618L402.214 55.328C401.753 54.1184 401.292 52.8224 400.831 51.44C400.37 50.0576 399.91 48.6464 399.449 47.2064C398.988 45.7088 398.527 44.2688 398.066 42.8864C397.663 41.4464 397.318 40.1216 397.03 38.912L399.622 38.8256C399.276 40.2656 398.873 41.6768 398.412 43.0592C398.009 44.4416 397.577 45.824 397.116 47.2064C396.713 48.5312 396.252 49.8848 395.734 51.2672C395.215 52.592 394.726 53.9744 394.265 55.4144L382.86 86H368.345ZM379.75 74.4224L384.329 63.3632H412.15L416.642 74.4224H379.75ZM434.556 86V40.1216H447.689L448.121 49.4528L445.356 50.4896C445.99 48.416 447.113 46.544 448.726 44.8736C450.396 43.1456 452.383 41.7632 454.687 40.7264C456.991 39.6896 459.411 39.1712 461.945 39.1712C465.401 39.1712 468.31 39.8912 470.671 41.3312C473.033 42.7136 474.819 44.816 476.028 47.6384C477.238 50.4032 477.843 53.8016 477.843 57.8336V86H463.932V58.9568C463.932 57.1136 463.673 55.5872 463.155 54.3776C462.636 53.168 461.83 52.2752 460.735 51.6992C459.699 51.0656 458.403 50.7776 456.847 50.8352C455.638 50.8352 454.515 51.0368 453.478 51.44C452.441 51.7856 451.548 52.3328 450.799 53.0816C450.051 53.7728 449.446 54.5792 448.985 55.5008C448.582 56.4224 448.38 57.4304 448.38 58.5248V86H441.555C439.942 86 438.559 86 437.407 86C436.255 86 435.305 86 434.556 86ZM490.178 86V40.1216H504.002V86H490.178ZM497.09 31.0496C494.498 31.0496 492.453 30.4448 490.955 29.2352C489.515 27.968 488.795 26.1824 488.795 23.8784C488.795 21.8048 489.544 20.1056 491.042 18.7808C492.539 17.456 494.555 16.7936 497.09 16.7936C499.682 16.7936 501.698 17.4272 503.138 18.6944C504.578 19.904 505.298 21.632 505.298 23.8784C505.298 26.0096 504.549 27.7376 503.051 29.0624C501.611 30.3872 499.624 31.0496 497.09 31.0496ZM516.904 86V40.1216H530.037L530.469 48.416L528.655 48.5024C529.346 47.0048 530.21 45.68 531.247 44.528C532.341 43.376 533.551 42.4256 534.875 41.6768C536.258 40.8704 537.669 40.2656 539.109 39.8624C540.607 39.4592 542.104 39.2576 543.602 39.2576C545.848 39.2576 547.893 39.6032 549.736 40.2944C551.579 40.9856 553.192 42.1088 554.575 43.664C555.957 45.1616 557.051 47.2064 557.858 49.7984L555.698 49.6256L556.389 48.2432C557.138 46.8608 558.088 45.6224 559.24 44.528C560.45 43.376 561.775 42.4256 563.215 41.6768C564.655 40.8704 566.152 40.2656 567.707 39.8624C569.263 39.4592 570.76 39.2576 572.2 39.2576C575.829 39.2576 578.853 39.9776 581.272 41.4176C583.691 42.8 585.506 44.9024 586.715 47.7248C587.983 50.5472 588.616 53.9744 588.616 58.0064V86H574.706V59.1296C574.706 57.2864 574.447 55.76 573.928 54.5504C573.41 53.3408 572.632 52.448 571.595 51.872C570.616 51.2384 569.378 50.9216 567.88 50.9216C566.671 50.9216 565.547 51.1232 564.511 51.5264C563.531 51.9296 562.667 52.4768 561.919 53.168C561.227 53.8592 560.68 54.6656 560.277 55.5872C559.874 56.5088 559.672 57.5456 559.672 58.6976V86H545.762V59.0432C545.762 57.3152 545.503 55.8464 544.984 54.6368C544.466 53.4272 543.688 52.5056 542.651 51.872C541.615 51.2384 540.405 50.9216 539.023 50.9216C537.813 50.9216 536.69 51.1232 535.653 51.5264C534.674 51.9296 533.81 52.4768 533.061 53.168C532.37 53.8592 531.823 54.6656 531.419 55.5872C531.016 56.5088 530.815 57.5168 530.815 58.6112V86H516.904ZM621.959 86.864C616.89 86.864 612.484 85.856 608.74 83.84C604.996 81.7664 602.087 78.9728 600.014 75.4592C597.94 71.888 596.903 67.8272 596.903 63.2768C596.903 59.7632 597.479 56.5376 598.631 53.6C599.783 50.6624 601.396 48.128 603.47 45.9968C605.543 43.808 607.991 42.1376 610.814 40.9856C613.694 39.776 616.833 39.1712 620.231 39.1712C623.457 39.1712 626.394 39.7472 629.044 40.8992C631.751 42.0512 634.084 43.664 636.042 45.7376C638.001 47.8112 639.498 50.2592 640.535 53.0816C641.572 55.904 642.033 58.9856 641.918 62.3264L641.831 66.0416H605.284L603.297 58.2656H630.599L629.13 59.9072V58.1792C629.015 56.7392 628.554 55.472 627.748 54.3776C626.999 53.2256 625.991 52.3328 624.724 51.6992C623.457 51.0656 622.017 50.7488 620.404 50.7488C618.158 50.7488 616.228 51.2096 614.615 52.1312C613.06 52.9952 611.879 54.2912 611.073 56.0192C610.266 57.6896 609.863 59.7632 609.863 62.24C609.863 64.7744 610.382 66.992 611.418 68.8928C612.513 70.736 614.068 72.176 616.084 73.2128C618.158 74.2496 620.606 74.768 623.428 74.768C625.386 74.768 627.114 74.48 628.612 73.904C630.167 73.328 631.838 72.3488 633.623 70.9664L640.103 80.1248C638.318 81.68 636.417 82.9472 634.401 83.9264C632.385 84.9056 630.311 85.6256 628.18 86.0864C626.106 86.6048 624.033 86.864 621.959 86.864Z" fill="white"/>
</svg>
