<svg width="555" height="90" viewBox="0 0 555 90" fill="none" xmlns="http://www.w3.org/2000/svg">
<path d="M0.6032 70V9.52H13.736L35.768 45.376L26.3504 45.2896L48.6416 9.52H61.256V70H47V51.1648C47 45.9808 47.1152 41.3152 47.3456 37.168C47.6336 33.0208 48.0944 28.9024 48.728 24.8128L50.3696 29.3056L33.608 55.312H27.9056L11.4896 29.4784L13.1312 24.8128C13.7648 28.672 14.1968 32.6464 14.4272 36.736C14.7152 40.768 14.8592 45.5776 14.8592 51.1648V70H0.6032ZM80.7763 89.872L91.2307 65.248L91.4035 72.3328L69.2851 24.1216H84.9235L94.6003 47.1904C95.1187 48.3424 95.6083 49.5808 96.0691 50.9056C96.5299 52.2304 96.8755 53.4976 97.1059 54.7072L95.2051 55.8304C95.5507 54.9664 95.9251 53.9008 96.3283 52.6336C96.7891 51.3088 97.2787 49.8976 97.7971 48.4L106.264 24.1216H121.989L102.463 70L94.5139 89.872H80.7763ZM406.194 70V9.52H420.882V57.04H447.839V70H406.194ZM458.153 70V24.1216H471.977V70H458.153ZM465.065 15.0496C462.473 15.0496 460.428 14.4448 458.93 13.2352C457.49 11.968 456.77 10.1824 456.77 7.8784C456.77 5.8048 457.519 4.1056 459.017 2.7808C460.514 1.456 462.53 0.7936 465.065 0.7936C467.657 0.7936 469.673 1.4272 471.113 2.6944C472.553 3.904 473.273 5.632 473.273 7.8784C473.273 10.0096 472.524 11.7376 471.026 13.0624C469.586 14.3872 467.599 15.0496 465.065 15.0496ZM500.431 70.864C495.938 70.864 491.964 70.144 488.508 68.704C485.11 67.264 482.402 65.3344 480.386 62.9152L488.767 55.6576C490.553 57.4432 492.569 58.768 494.815 59.632C497.062 60.4384 499.193 60.8416 501.209 60.8416C502.015 60.8416 502.735 60.7552 503.369 60.5824C504.002 60.4096 504.521 60.1792 504.924 59.8912C505.385 59.5456 505.73 59.1712 505.961 58.768C506.191 58.3072 506.306 57.7888 506.306 57.2128C506.306 56.0608 505.788 55.168 504.751 54.5344C504.233 54.2464 503.369 53.9008 502.159 53.4976C500.95 53.0944 499.394 52.6336 497.494 52.1152C494.786 51.424 492.425 50.6176 490.409 49.696C488.45 48.7168 486.838 47.5936 485.57 46.3264C484.418 45.1168 483.526 43.792 482.892 42.352C482.258 40.8544 481.942 39.184 481.942 37.3408C481.942 35.2096 482.431 33.28 483.41 31.552C484.447 29.824 485.801 28.3264 487.471 27.0592C489.199 25.792 491.158 24.8416 493.346 24.208C495.593 23.5168 497.897 23.1712 500.258 23.1712C502.793 23.1712 505.212 23.4592 507.516 24.0352C509.82 24.6112 511.951 25.4176 513.91 26.4544C515.926 27.4912 517.711 28.7296 519.266 30.1696L512.009 38.2912C510.972 37.312 509.791 36.448 508.466 35.6992C507.199 34.8928 505.874 34.2592 504.492 33.7984C503.11 33.3376 501.842 33.1072 500.69 33.1072C499.826 33.1072 499.049 33.1936 498.358 33.3664C497.724 33.4816 497.177 33.712 496.716 34.0576C496.255 34.3456 495.91 34.72 495.679 35.1808C495.449 35.584 495.334 36.0736 495.334 36.6496C495.334 37.2256 495.478 37.7728 495.766 38.2912C496.111 38.8096 496.572 39.2416 497.148 39.5872C497.724 39.9328 498.646 40.336 499.913 40.7968C501.18 41.2 502.908 41.7184 505.097 42.352C507.804 43.1008 510.137 43.936 512.095 44.8576C514.054 45.7792 515.609 46.8736 516.761 48.1408C517.682 49.12 518.374 50.272 518.834 51.5968C519.295 52.864 519.526 54.2464 519.526 55.744C519.526 58.6816 518.69 61.3024 517.02 63.6064C515.407 65.8528 513.161 67.6384 510.281 68.9632C507.401 70.2304 504.118 70.864 500.431 70.864ZM531.545 70V12.544H545.369V70H531.545ZM523.424 36.2176V24.1216H554.269V36.2176H523.424Z" fill="#FF451D"/>
<path d="M122.345 70L146.278 9.52H158.719L182.479 70H167.618L156.214 39.328C155.753 38.1184 155.292 36.8224 154.831 35.44C154.37 34.0576 153.91 32.6464 153.449 31.2064C152.988 29.7088 152.527 28.2688 152.066 26.8864C151.663 25.4464 151.318 24.1216 151.03 22.912L153.622 22.8256C153.276 24.2656 152.873 25.6768 152.412 27.0592C152.009 28.4416 151.577 29.824 151.116 31.2064C150.713 32.5312 150.252 33.8848 149.734 35.2672C149.215 36.592 148.726 37.9744 148.265 39.4144L136.86 70H122.345ZM133.75 58.4224L138.329 47.3632H166.15L170.642 58.4224H133.75ZM188.556 70V24.1216H201.689L202.121 33.4528L199.356 34.4896C199.99 32.416 201.113 30.544 202.726 28.8736C204.396 27.1456 206.383 25.7632 208.687 24.7264C210.991 23.6896 213.411 23.1712 215.945 23.1712C219.401 23.1712 222.31 23.8912 224.671 25.3312C227.033 26.7136 228.819 28.816 230.028 31.6384C231.238 34.4032 231.843 37.8016 231.843 41.8336V70H217.932V42.9568C217.932 41.1136 217.673 39.5872 217.155 38.3776C216.636 37.168 215.83 36.2752 214.735 35.6992C213.699 35.0656 212.403 34.7776 210.847 34.8352C209.638 34.8352 208.515 35.0368 207.478 35.44C206.441 35.7856 205.548 36.3328 204.799 37.0816C204.051 37.7728 203.446 38.5792 202.985 39.5008C202.582 40.4224 202.38 41.4304 202.38 42.5248V70H195.555C193.942 70 192.559 70 191.407 70C190.255 70 189.305 70 188.556 70ZM244.178 70V24.1216H258.002V70H244.178ZM251.09 15.0496C248.498 15.0496 246.453 14.4448 244.955 13.2352C243.515 11.968 242.795 10.1824 242.795 7.8784C242.795 5.8048 243.544 4.1056 245.042 2.7808C246.539 1.456 248.555 0.7936 251.09 0.7936C253.682 0.7936 255.698 1.4272 257.138 2.6944C258.578 3.904 259.298 5.632 259.298 7.8784C259.298 10.0096 258.549 11.7376 257.051 13.0624C255.611 14.3872 253.624 15.0496 251.09 15.0496ZM270.904 70V24.1216H284.037L284.469 32.416L282.655 32.5024C283.346 31.0048 284.21 29.68 285.247 28.528C286.341 27.376 287.551 26.4256 288.875 25.6768C290.258 24.8704 291.669 24.2656 293.109 23.8624C294.607 23.4592 296.104 23.2576 297.602 23.2576C299.848 23.2576 301.893 23.6032 303.736 24.2944C305.579 24.9856 307.192 26.1088 308.575 27.664C309.957 29.1616 311.051 31.2064 311.858 33.7984L309.698 33.6256L310.389 32.2432C311.138 30.8608 312.088 29.6224 313.24 28.528C314.45 27.376 315.775 26.4256 317.215 25.6768C318.655 24.8704 320.152 24.2656 321.707 23.8624C323.263 23.4592 324.76 23.2576 326.2 23.2576C329.829 23.2576 332.853 23.9776 335.272 25.4176C337.691 26.8 339.506 28.9024 340.715 31.7248C341.983 34.5472 342.616 37.9744 342.616 42.0064V70H328.706V43.1296C328.706 41.2864 328.447 39.76 327.928 38.5504C327.41 37.3408 326.632 36.448 325.595 35.872C324.616 35.2384 323.378 34.9216 321.88 34.9216C320.671 34.9216 319.547 35.1232 318.511 35.5264C317.531 35.9296 316.667 36.4768 315.919 37.168C315.227 37.8592 314.68 38.6656 314.277 39.5872C313.874 40.5088 313.672 41.5456 313.672 42.6976V70H299.762V43.0432C299.762 41.3152 299.503 39.8464 298.984 38.6368C298.466 37.4272 297.688 36.5056 296.651 35.872C295.615 35.2384 294.405 34.9216 293.023 34.9216C291.813 34.9216 290.69 35.1232 289.653 35.5264C288.674 35.9296 287.81 36.4768 287.061 37.168C286.37 37.8592 285.823 38.6656 285.419 39.5872C285.016 40.5088 284.815 41.5168 284.815 42.6112V70H270.904ZM375.959 70.864C370.89 70.864 366.484 69.856 362.74 67.84C358.996 65.7664 356.087 62.9728 354.014 59.4592C351.94 55.888 350.903 51.8272 350.903 47.2768C350.903 43.7632 351.479 40.5376 352.631 37.6C353.783 34.6624 355.396 32.128 357.47 29.9968C359.543 27.808 361.991 26.1376 364.814 24.9856C367.694 23.776 370.833 23.1712 374.231 23.1712C377.457 23.1712 380.394 23.7472 383.044 24.8992C385.751 26.0512 388.084 27.664 390.042 29.7376C392.001 31.8112 393.498 34.2592 394.535 37.0816C395.572 39.904 396.033 42.9856 395.918 46.3264L395.831 50.0416H359.284L357.297 42.2656H384.599L383.13 43.9072V42.1792C383.015 40.7392 382.554 39.472 381.748 38.3776C380.999 37.2256 379.991 36.3328 378.724 35.6992C377.457 35.0656 376.017 34.7488 374.404 34.7488C372.158 34.7488 370.228 35.2096 368.615 36.1312C367.06 36.9952 365.879 38.2912 365.073 40.0192C364.266 41.6896 363.863 43.7632 363.863 46.24C363.863 48.7744 364.382 50.992 365.418 52.8928C366.513 54.736 368.068 56.176 370.084 57.2128C372.158 58.2496 374.606 58.768 377.428 58.768C379.386 58.768 381.114 58.48 382.612 57.904C384.167 57.328 385.838 56.3488 387.623 54.9664L394.103 64.1248C392.318 65.68 390.417 66.9472 388.401 67.9264C386.385 68.9056 384.311 69.6256 382.18 70.0864C380.106 70.6048 378.033 70.864 375.959 70.864Z" fill="white"/>
</svg>
